<svg width="37" height="36" viewBox="0 0 37 36" fill="none" xmlns="http://www.w3.org/2000/svg">
<path d="M36.3611 17.6816C36.3611 27.4464 28.4449 35.3627 18.6795 35.3627C8.91389 35.3627 0.997803 27.4464 0.997803 17.6816C0.997803 7.91623 8.91417 0 18.6795 0C28.445 0 36.3611 7.91623 36.3611 17.6816Z" fill="#A1B0BB"/>
<path d="M6.6565 15.3205C5.35215 15.3205 4.29541 16.3773 4.29541 17.6816C4.29541 18.9853 5.35215 20.0421 6.6565 20.0421C7.96029 20.0421 9.01703 18.9853 9.01703 17.6816C9.01703 16.3773 7.96029 15.3205 6.6565 15.3205ZM23.5116 26.0497C22.3826 26.7019 21.9953 28.1449 22.6475 29.2734C23.2991 30.4025 24.742 30.7896 25.8712 30.1375C27.0002 29.486 27.3874 28.043 26.7353 26.9137C26.0838 25.7853 24.64 25.3983 23.5116 26.0497ZM11.7843 17.6816C11.7843 15.3488 12.9431 13.2876 14.7161 12.0396L12.9902 9.14901C10.9249 10.5297 9.38802 12.6393 8.74935 15.1102C9.49465 15.7181 9.97158 16.6438 9.97158 17.6815C9.97158 18.7186 9.49465 19.6443 8.74935 20.2524C9.38719 22.7238 10.924 24.8337 12.9902 26.2144L14.7161 23.3229C12.9431 22.0756 11.7843 20.0146 11.7843 17.6816ZM18.6795 10.7857C22.2818 10.7857 25.2372 13.5476 25.5474 17.0699L28.9111 17.0204C28.7458 14.42 27.6097 12.0855 25.8643 10.3689C24.9666 10.708 23.9297 10.6561 23.0337 10.1396C22.136 9.6215 21.573 8.74755 21.4192 7.79896C20.5268 7.55202 19.6052 7.42672 18.6794 7.42645C17.1029 7.42484 15.5474 7.78804 14.1346 8.48763L15.7749 11.4271C16.6846 11.0037 17.6761 10.7848 18.6795 10.7857ZM18.6795 24.577C17.6761 24.5779 16.6847 24.3589 15.775 23.9355L14.1347 26.8748C15.5473 27.5751 17.103 27.9387 18.6796 27.937C19.6055 27.9368 20.5272 27.8112 21.4193 27.5636C21.5732 26.615 22.1362 25.7419 23.0337 25.223C23.9305 24.7055 24.9668 24.6545 25.8643 24.9936C27.6098 23.277 28.7458 20.9425 28.9114 18.3422L25.5467 18.2926C25.2372 21.8159 22.2819 24.5768 18.6795 24.5768V24.577ZM23.5108 9.31214C24.64 9.9641 26.0831 9.57802 26.7345 8.44885C27.3867 7.31968 27.0004 5.87658 25.8712 5.22434C24.742 4.57293 23.2991 4.95984 22.6467 6.08901C21.9954 7.21762 22.3825 8.66059 23.5108 9.31214Z" fill="white"/>
</svg>
