<svg width="31" height="35" viewBox="0 0 31 35" fill="none" xmlns="http://www.w3.org/2000/svg">
<path d="M3.11933 30.7455L0.326416 0L30.4148 0.0117348L27.6453 30.7221L15.3471 34.1956L3.11933 30.7455ZM25.3805 29.0674L27.7158 2.73424H15.3941L15.488 31.7782L25.3805 29.0674ZM14.2441 6.59504H11.2516L11.2164 22.3551L5.40764 20.7708L5.41938 24.3735L14.2441 26.7557V6.59504Z" fill="#A1B0BB"/>
<path opacity="0.986" d="M13.2583 26.4623C12.871 26.3449 10.9582 25.8286 9.01024 25.3005L5.47803 24.35V22.578C5.47803 20.8413 5.47803 20.8061 5.65405 20.8647C5.74793 20.8999 7.03877 21.252 8.51738 21.6627L11.2047 22.402L11.2281 14.5396L11.2516 6.67719H14.1854V16.6754C14.1854 24.6199 14.1619 26.6735 14.0797 26.6735C14.0211 26.6618 13.6455 26.5679 13.2583 26.4623Z" fill="#A1B0BB"/>
<path opacity="0.986" d="M5.41921 24.3734L5.40747 20.7708C5.40747 20.7708 9.11571 21.8152 11.2163 22.355L11.2515 6.60675H14.2439V26.7556L5.41921 24.3734Z" fill="#F6F9FC"/>
<path d="M15.394 2.72253H27.7157L25.3805 29.0557L15.394 31.7665V2.72253ZM24.7468 24.6434L25.5565 14.7978L19.5717 15.4667V10.2094L25.9555 10.186L26.2137 6.59506L16.5793 6.642L16.7084 19.7147L22.5289 18.7173L22.4467 21.6275L16.5793 23.1883L16.6379 26.7557L24.7468 24.6434Z" fill="#A1B0BB"/>
</svg>
