<svg width="142" height="30" viewBox="0 0 142 30" fill="none" xmlns="http://www.w3.org/2000/svg">
<path fill-rule="evenodd" clip-rule="evenodd" d="M141.326 13.5527V11.0848H138.262V7.24819L138.159 7.27996L135.28 8.16068L135.223 8.17792V11.0849H130.68V9.46548C130.68 8.71141 130.849 8.13435 131.181 7.74951C131.511 7.36928 131.983 7.17598 132.585 7.17598C133.018 7.17598 133.466 7.27792 133.917 7.47896L134.03 7.52946V4.93046L133.977 4.91091C133.556 4.75969 132.984 4.68353 132.275 4.68353C131.381 4.68353 130.568 4.87806 129.86 5.26358C129.151 5.64964 128.594 6.20077 128.203 6.9015C127.814 7.60141 127.617 8.40978 127.617 9.30435V11.0848H125.483V13.5527H127.617V23.9494H130.68V13.5527H135.223V20.1596C135.223 22.8806 136.507 24.2596 139.038 24.2596C139.454 24.2596 139.892 24.2108 140.339 24.1154C140.794 24.0174 141.104 23.9195 141.286 23.815L141.327 23.7911V21.3004L141.202 21.3828C141.036 21.4936 140.829 21.5841 140.586 21.6515C140.342 21.72 140.138 21.7543 139.981 21.7543C139.388 21.7543 138.949 21.5946 138.677 21.2792C138.402 20.961 138.262 20.4046 138.262 19.6262V13.5527H141.326ZM118.642 21.7548C117.53 21.7548 116.653 21.3861 116.035 20.6598C115.414 19.9299 115.099 18.8893 115.099 17.5671C115.099 16.203 115.414 15.1353 116.036 14.3925C116.654 13.6546 117.522 13.2801 118.617 13.2801C119.679 13.2801 120.524 13.6378 121.13 14.3438C121.739 15.0535 122.048 16.1126 122.048 17.4926C122.048 18.8896 121.757 19.9626 121.184 20.6805C120.616 21.3929 119.76 21.7548 118.642 21.7548ZM113.77 12.6224C114.972 11.3965 116.656 10.7749 118.778 10.7749C120.776 10.7749 122.361 11.3695 123.488 12.5424C124.614 13.7149 125.185 15.3471 125.185 17.3928C125.185 19.4639 124.577 21.1446 123.376 22.3861C122.175 23.629 120.524 24.2593 118.468 24.2593C116.494 24.2593 114.899 23.6612 113.727 22.4805C112.555 21.3001 111.961 19.68 111.961 17.6658C111.961 15.5452 112.57 13.8485 113.77 12.6224ZM107.022 10.7749C105.579 10.7749 104.385 11.144 103.473 11.8717C102.556 12.6038 102.091 13.5639 102.091 14.7258C102.091 15.3297 102.191 15.8662 102.389 16.3212C102.588 16.7777 102.895 17.1797 103.304 17.517C103.71 17.8516 104.336 18.2021 105.166 18.5587C105.864 18.8458 106.384 19.0887 106.715 19.2801C107.038 19.4677 107.267 19.6562 107.397 19.8399C107.523 20.0196 107.586 20.2656 107.586 20.5691C107.586 21.4334 106.939 21.854 105.607 21.854C105.113 21.854 104.55 21.7508 103.933 21.5475C103.32 21.3472 102.741 21.0539 102.218 20.6779L102.09 20.5867V23.536L102.137 23.5577C102.571 23.7578 103.117 23.9266 103.761 24.0593C104.404 24.1922 104.988 24.2598 105.496 24.2598C107.062 24.2598 108.322 23.889 109.243 23.1569C110.168 22.4198 110.638 21.437 110.638 20.2349C110.638 19.3678 110.385 18.6242 109.887 18.0244C109.393 17.4296 108.534 16.8835 107.337 16.4008C106.383 16.018 105.772 15.7002 105.52 15.4562C105.277 15.2206 105.154 14.8873 105.154 14.4653C105.154 14.0912 105.306 13.7915 105.619 13.5487C105.934 13.3048 106.373 13.1807 106.923 13.1807C107.433 13.1807 107.955 13.2614 108.475 13.4194C108.994 13.5774 109.449 13.789 109.83 14.0479L109.955 14.1334V11.3357L109.907 11.315C109.556 11.1645 109.093 11.0357 108.531 10.9311C107.971 10.8273 107.463 10.7749 107.022 10.7749ZM91.4984 20.6598C92.1161 21.3861 92.993 21.7548 94.1046 21.7548C95.2235 21.7548 96.0785 21.3929 96.6474 20.6805C97.2203 19.9626 97.5109 18.8896 97.5109 17.4926C97.5109 16.1126 97.2021 15.0535 96.5933 14.3438C95.9874 13.6378 95.1419 13.2801 94.0801 13.2801C92.9849 13.2801 92.1168 13.6546 91.4991 14.3925C90.8771 15.1353 90.5623 16.203 90.5623 17.5671C90.5623 18.8896 90.8767 19.9299 91.4984 20.6598ZM94.2412 10.7749C92.1193 10.7749 90.4343 11.3965 89.2336 12.6224C88.0331 13.8485 87.424 15.5452 87.424 17.6658C87.424 19.6808 88.0186 21.3001 89.1906 22.4805C90.3626 23.6612 91.9575 24.2593 93.9309 24.2593C95.9869 24.2593 97.6387 23.629 98.8395 22.3861C100.04 21.1446 100.648 19.4639 100.648 17.3928C100.648 15.3471 100.077 13.7149 98.9509 12.5424C97.8238 11.3695 96.2391 10.7749 94.2412 10.7749ZM82.7739 11.0848V13.3127H82.806C83.0888 12.5897 83.4586 12.0099 83.9702 11.5871C84.5531 11.106 85.2336 10.8616 85.994 10.8616C86.4985 10.8616 86.8972 10.922 87.179 11.0418L87.228 11.0628V14.1136L87.1008 14.0214C86.9607 13.9204 86.7231 13.8244 86.3952 13.7361C86.0638 13.6472 85.7578 13.6022 85.4853 13.6022C84.6811 13.6022 84.0225 13.9499 83.5282 14.6359C83.0276 15.3303 82.7739 16.2496 82.7739 17.3685V23.9491H79.7478V11.0848H82.7739ZM74.3287 10.7749C72.9404 10.7749 71.7021 11.0726 70.6488 11.6594C69.5934 12.2476 68.7772 13.0873 68.2218 14.1551C67.6689 15.2203 67.3882 16.4646 67.3882 17.8522C67.3882 19.0676 67.6604 20.1831 68.1983 21.1662C68.7366 22.1509 69.4984 22.9212 70.4627 23.4555C71.4257 23.9891 72.5387 24.2597 73.771 24.2597C75.2091 24.2597 76.4369 23.9722 77.4214 23.4052L77.4612 23.3824V20.61L77.334 20.7029C76.888 21.0277 76.3897 21.287 75.8535 21.4738C75.3187 21.6604 74.8311 21.7548 74.4035 21.7548C73.2161 21.7548 72.2629 21.3832 71.571 20.6507C70.8776 19.9173 70.526 18.8874 70.526 17.5914C70.526 16.2873 70.8926 15.2309 71.6152 14.4515C72.3356 13.6743 73.2906 13.2801 74.4534 13.2801C75.448 13.2801 76.4173 13.6169 77.3342 14.282L77.4612 14.3742V11.4531L77.4202 11.43C77.0751 11.2368 76.6045 11.0773 76.0202 10.9564C75.4384 10.8357 74.8693 10.7749 74.3287 10.7749ZM62.278 11.0849H65.3041V23.9491H62.278V11.0849ZM63.822 5.60471C63.324 5.60471 62.8896 5.77426 62.5327 6.11023C62.1743 6.44715 61.9926 6.87136 61.9926 7.37199C61.9926 7.86475 62.1721 8.28122 62.5271 8.60919C62.8798 8.9362 63.3155 9.10195 63.8221 9.10195C64.3286 9.10195 64.766 8.9362 65.1229 8.60973C65.4821 8.28122 65.6642 7.86489 65.6642 7.37199C65.6642 6.88887 65.4869 6.46901 65.1377 6.1238C64.7887 5.77928 64.3459 5.60471 63.822 5.60471ZM56.2718 23.9491V10.1358H56.1721L50.6916 23.9491H48.5015L42.9341 10.1344H42.8345V23.949H39.9324V5.99851H44.3807L49.6529 19.3317L55.0858 5.99851H59.36V23.9491H56.2718Z" fill="#A1B0BB"/>
<path d="M15.2343 14.2355H0.998779V0H15.2343V14.2355Z" fill="#A1B0BB"/>
<path d="M30.9518 14.2355H16.7166V0H30.9518V14.2355Z" fill="#A1B0BB"/>
<path d="M15.2338 29.9586H0.998779V15.7233H15.2338V29.9586Z" fill="#A1B0BB"/>
<path d="M30.9518 29.9586H16.7166V15.7233H30.9518V29.9586Z" fill="#A1B0BB"/>
</svg>
