<svg width="119" height="29" viewBox="0 0 119 29" fill="none" xmlns="http://www.w3.org/2000/svg">
<path d="M44.6171 14.6213C44.6171 10.9921 43.5823 9.1289 41.5125 9.02697C40.6888 8.98809 39.8851 9.11918 39.1028 9.42299C38.4784 9.64629 38.0582 9.86761 37.8372 10.0912V18.7538C39.1611 19.5847 40.3367 19.971 41.362 19.9102C43.531 19.7664 44.6171 18.0053 44.6171 14.6213ZM47.1702 14.7719C47.1702 16.6157 46.7378 18.1462 45.868 19.3631C44.8988 20.7406 43.5554 21.4499 41.838 21.4888C40.5433 21.5299 39.2094 21.1244 37.8369 20.274V28.1473L35.6166 27.3553V9.87957C35.9809 9.43271 36.45 9.0489 37.0182 8.72316C38.3399 7.95305 39.9454 7.55728 41.8355 7.53784L41.8669 7.56924C43.5943 7.54756 44.9252 8.25686 45.8605 9.69489C46.7328 11.014 47.1702 12.7048 47.1702 14.7719ZM60.7398 19.9391C60.7398 22.4122 60.4921 24.1246 59.9966 25.0769C59.4987 26.0289 58.5511 26.7893 57.152 27.3556C56.0175 27.8024 54.7905 28.0454 53.4741 28.0868L53.107 26.6876C54.4456 26.5057 55.3882 26.3233 55.9347 26.1411C57.0109 25.7767 57.7494 25.2182 58.1551 24.4698C58.4806 23.8602 58.6408 22.6965 58.6408 20.9744V20.3962C57.1225 21.0863 55.5315 21.4287 53.8677 21.4287C52.7743 21.4287 51.81 21.0863 50.9791 20.3962C50.0463 19.6455 49.58 18.6935 49.58 17.5395V8.29823L51.8003 7.53784V16.8392C51.8003 17.8326 52.1208 18.598 52.7621 19.1348C53.4033 19.6717 54.2343 19.9294 55.2521 19.9097C56.2699 19.8877 57.3606 19.4942 58.5192 18.7241V7.8728H60.7396V19.9391H60.7398ZM69.4072 21.3674C69.1639 21.3879 68.92 21.3984 68.6759 21.3988C67.4201 21.3988 66.4409 21.1002 65.7415 20.5001C65.0442 19.9002 64.6945 19.072 64.6945 18.0151V9.26971H63.1738V7.87305H64.6945V4.16357L66.9124 3.37402V7.87305H69.4072V9.26971H66.9124V17.9542C66.9124 18.7877 67.1357 19.3778 67.5826 19.723C67.9664 20.0071 68.5762 20.1699 69.4069 20.2112V21.3674H69.4072ZM82.8507 21.1852H80.6303V12.6148C80.6303 11.7428 80.4264 10.9921 80.0207 10.3656C79.5519 9.65602 78.9009 9.30137 78.065 9.30137C77.0472 9.30137 75.7744 9.8382 74.2464 10.9119V21.1852H72.0263V0.699578L74.2464 0V9.33053C75.665 8.29798 77.2149 7.78059 78.8984 7.78059C80.0743 7.78059 81.0263 8.17661 81.7553 8.96616C82.4865 9.75546 82.8509 10.7394 82.8509 11.9152V21.1852H82.8507ZM94.6518 14.2717C94.6518 12.8773 94.3871 11.7258 93.8597 10.8149C93.2329 9.70486 92.2589 9.11918 90.9423 9.05862C88.5081 9.19943 87.2934 10.9435 87.2934 14.2864C87.2934 15.8191 87.5461 17.0994 88.0562 18.127C88.7072 19.4364 89.6839 20.0826 90.9861 20.0607C93.4298 20.041 94.6518 18.1123 94.6518 14.2717ZM97.0835 14.2861C97.0835 16.271 96.5758 17.9228 95.5627 19.2417C94.4474 20.7189 92.9077 21.4596 90.9423 21.4596C88.9941 21.4596 87.4758 20.7187 86.3802 19.2417C85.3865 17.9228 84.8908 16.271 84.8908 14.2861C84.8908 12.4207 85.4277 10.8513 86.5016 9.57352C87.636 8.21798 89.1274 7.53784 90.9714 7.53784C92.815 7.53784 94.3163 8.21798 95.4727 9.57352C96.5466 10.8513 97.0835 12.4207 97.0835 14.2861ZM109.812 21.1852H107.592V12.1291C107.592 11.1357 107.294 10.3606 106.696 9.80181C106.098 9.24554 105.301 8.97588 104.308 8.99756C103.254 9.017 102.25 9.36193 101.298 10.0301V21.1852H99.0778V9.7557C100.356 8.82559 101.531 8.21798 102.605 7.93386C103.618 7.66918 104.512 7.53784 105.282 7.53784C105.809 7.53784 106.305 7.58868 106.771 7.69087C107.643 7.89249 108.353 8.26658 108.899 8.81562C109.509 9.42299 109.812 10.1515 109.812 11.0043V21.1852Z" fill="#A1B0BB"/>
<path d="M13.6871 0.781555C12.5447 0.786788 11.4538 0.884236 10.4941 1.05421C7.66634 1.55391 7.15294 2.59941 7.15294 4.52792V7.07476H13.8352V7.92363H4.64498C2.70301 7.92363 1.00229 9.091 0.470438 11.3116C-0.143156 13.857 -0.170322 15.4453 0.470438 18.103C0.945463 20.0814 2.07994 21.491 4.02191 21.491H6.31952V18.438C6.31952 16.2323 8.22785 14.2869 10.4941 14.2869H17.1686C19.0266 14.2869 20.5097 12.7571 20.5097 10.8912V4.52767C20.5097 2.7168 18.982 1.35627 17.1686 1.05396C16.0204 0.863052 14.8296 0.776072 13.6871 0.781555ZM10.0734 2.82969C10.7637 2.82969 11.3272 3.40267 11.3272 4.10698C11.3272 4.8088 10.7635 5.37654 10.0734 5.37654C9.38077 5.37654 8.81951 4.80905 8.81951 4.10698C8.81951 3.40267 9.38077 2.82969 10.0734 2.82969Z" fill="#A1B0BB"/>
<path d="M21.3431 7.92346V10.8907C21.3431 13.1914 19.3927 15.1276 17.1686 15.1276H10.4941C8.66576 15.1276 7.15295 16.6922 7.15295 18.5233V24.8863C7.15295 26.6974 8.72757 27.7626 10.4941 28.282C12.6093 28.9041 14.6377 29.0165 17.1686 28.282C18.8509 27.795 20.5097 26.8146 20.5097 24.8863V22.3397H13.8352V21.4908H23.8509C25.7931 21.4908 26.5166 20.136 27.192 18.1029C27.8898 16.0099 27.8602 13.9966 27.192 11.3114C26.712 9.37819 25.7953 7.92346 23.8509 7.92346H21.3431ZM17.589 24.0374C18.2816 24.0374 18.8429 24.6049 18.8429 25.307C18.8429 26.0113 18.2816 26.5843 17.589 26.5843C16.8987 26.5843 16.3352 26.0113 16.3352 25.307C16.3352 24.6052 16.8989 24.0374 17.589 24.0374Z" fill="#A1B0BB"/>
<path d="M114.136 5.8934H114.525V3.45199H115.447V3.16089H113.214V3.45199H114.136V5.8934H114.136ZM115.793 5.8934H116.125V3.66358L116.847 5.89315H117.217L117.969 3.67105V5.8934H118.332V3.16114H117.852L117.03 5.50212L116.329 3.16114H115.793V5.8934Z" fill="#A1B0BB"/>
</svg>
