<svg width="53" height="48" viewBox="0 0 53 48" fill="none" xmlns="http://www.w3.org/2000/svg">
<g filter="url(#filter0_b)">
<rect width="53" height="48" rx="10" fill="url(#paint0_linear)"/>
</g>
<path fill-rule="evenodd" clip-rule="evenodd" d="M39.6936 27.2395C41.4744 26.5115 42.7344 24.7811 42.7344 22.7427V21.9419C42.7344 19.9035 41.4744 18.1675 39.6936 17.4395C39.4584 17.3443 39.2008 17.5179 39.2008 17.7699V26.9091C39.2008 27.1667 39.4584 27.3347 39.6936 27.2395ZM36.5016 27.4579C36.3336 25.3859 35.5104 23.5043 34.2336 22.0147C34.088 21.8411 34.1272 21.6059 34.3176 21.4827C36.0536 20.3739 37.14 18.3411 36.8768 16.0787C36.5912 13.6147 34.6256 11.5763 32.1728 11.2067C31.0248 11.0387 29.9272 11.2123 28.9752 11.6491C28.32 11.9515 27.6256 12.0971 26.9312 12.0971C26.2312 12.0971 25.5368 11.9459 24.8872 11.6491C23.9352 11.2123 22.8376 11.0331 21.6896 11.2067C19.2368 11.5707 17.2712 13.6147 16.9856 16.0787C16.7224 18.3467 17.8088 20.3739 19.5448 21.4827C19.7352 21.6059 19.7744 21.8411 19.6288 22.0147C18.3576 23.5043 17.5288 25.3859 17.3608 27.4579C17.344 27.6707 17.5008 27.8499 17.7136 27.8499H26.9312H36.1488C36.356 27.8499 36.5184 27.6651 36.5016 27.4579ZM17.4728 29.9555C18.2792 34.4523 22.1992 37.8739 26.9312 37.8739C31.6632 37.8739 35.5832 34.4579 36.3896 29.9555C36.4288 29.7315 36.2608 29.5299 36.0368 29.5299H26.9312H17.8256C17.6016 29.5299 17.4336 29.7371 17.4728 29.9555ZM14.1744 27.2395C14.4096 27.3347 14.6672 27.1611 14.6672 26.9091V17.7643C14.6672 17.5067 14.4096 17.3387 14.1744 17.4339C12.3936 18.1675 11.1336 19.8979 11.1336 21.9363V22.7427C11.1336 24.7755 12.3936 26.5115 14.1744 27.2395ZM39.0776 15.3171C39.548 15.2275 40.0408 15.2723 40.5 15.4571C43.1544 16.5491 44.8736 19.0915 44.8904 21.9363V22.7371C44.8904 25.5875 43.1768 28.1299 40.5224 29.2163C40.2144 29.3395 39.8896 29.4011 39.5704 29.4011C39.2736 29.4011 38.9824 29.3451 38.708 29.2443C38.596 29.1995 38.4784 29.3003 38.5008 29.4179C38.5568 29.7147 38.5624 30.0227 38.5064 30.3307C37.504 35.9419 32.6432 40.0131 26.9424 40.0131C21.2416 40.0131 16.3808 35.9419 15.3784 30.3307C15.3224 30.0227 15.328 29.7147 15.384 29.4179C15.4064 29.3003 15.2888 29.1995 15.1768 29.2443C14.8968 29.3451 14.6056 29.4011 14.3144 29.4011C13.9952 29.4011 13.676 29.3395 13.368 29.2163C10.7136 28.1243 9 25.5819 9 22.7371V21.9363C9 19.0859 10.7136 16.5435 13.368 15.4571C13.8272 15.2667 14.32 15.2275 14.7904 15.3171C14.88 15.3339 14.964 15.2835 14.9808 15.1939C15.6192 12.0411 18.1672 9.57146 21.3872 9.08987C22.8992 8.86027 24.4224 9.07307 25.7888 9.70026C26.1528 9.86826 26.5448 9.95226 26.9368 9.95226C27.3288 9.95226 27.7208 9.86826 28.0848 9.70026C29.4512 9.07867 30.9744 8.86587 32.4864 9.08987C35.7064 9.57146 38.2544 12.0411 38.8928 15.1939C38.9096 15.2835 38.988 15.3339 39.0776 15.3171ZM21.236 16.5323C21.236 16.0171 21.656 15.5971 22.1712 15.5971H31.6912C32.2064 15.5971 32.6264 16.0171 32.6264 16.5323C32.6264 17.0475 32.2064 17.4675 31.6912 17.4675H22.1712C21.656 17.4675 21.236 17.0475 21.236 16.5323ZM27.6368 21.7179C27.6368 21.1019 28.1352 20.6035 28.7512 20.6035C29.3672 20.6035 29.8656 21.1019 29.8656 21.7179C29.8656 22.3339 29.3672 22.8323 28.7512 22.8323C28.1352 22.8323 27.6368 22.3339 27.6368 21.7179ZM25.1112 20.6035C24.4952 20.6035 23.9968 21.1019 23.9968 21.7179C23.9968 22.3339 24.4952 22.8323 25.1112 22.8323C25.7272 22.8323 26.2256 22.3339 26.2256 21.7179C26.2256 21.1019 25.7272 20.6035 25.1112 20.6035Z" fill="white"/>
<defs>
<filter id="filter0_b" x="-4" y="-4" width="61" height="56" filterUnits="userSpaceOnUse" color-interpolation-filters="sRGB">
<feFlood flood-opacity="0" result="BackgroundImageFix"/>
<feGaussianBlur in="BackgroundImage" stdDeviation="2"/>
<feComposite in2="SourceAlpha" operator="in" result="effect1_backgroundBlur"/>
<feBlend mode="normal" in="SourceGraphic" in2="effect1_backgroundBlur" result="shape"/>
</filter>
<linearGradient id="paint0_linear" x1="26.5" y1="0" x2="26.5" y2="48" gradientUnits="userSpaceOnUse">
<stop stop-color="#FF66FC"/>
<stop offset="1" stop-color="#FF5846"/>
</linearGradient>
</defs>
</svg>
